<?xml version="1.0" encoding="UTF-8" standalone="no"?>
<!-- Created with Inkscape (http://www.inkscape.org/) -->

<svg
   width="377.52802"
   height="377.52802"
   viewBox="0 0 99.887621 99.88762"
   version="1.1"
   id="svg1"
   inkscape:version="1.3 (0e150ed6c4, 2023-07-21)"
   inkscape:export-filename="bitmap.png"
   inkscape:export-xdpi="96"
   inkscape:export-ydpi="96"
   xml:space="preserve"
   xmlns:inkscape="http://www.inkscape.org/namespaces/inkscape"
   xmlns:sodipodi="http://sodipodi.sourceforge.net/DTD/sodipodi-0.dtd"
   xmlns:xlink="http://www.w3.org/1999/xlink"
   xmlns="http://www.w3.org/2000/svg"
   xmlns:svg="http://www.w3.org/2000/svg"><sodipodi:namedview
     id="namedview1"
     pagecolor="#ffffff"
     bordercolor="#cccccc"
     borderopacity="1"
     inkscape:showpageshadow="0"
     inkscape:pageopacity="1"
     inkscape:pagecheckerboard="0"
     inkscape:deskcolor="#353535"
     inkscape:document-units="mm"
     showguides="true" /><defs
     id="defs1"><linearGradient
       id="linearGradient39"
       inkscape:collect="always"><stop
         style="stop-color:#6a0006;stop-opacity:1;"
         offset="0"
         id="stop36" /><stop
         style="stop-color:#f1170c;stop-opacity:1;"
         offset="0.13501143"
         id="stop37" /><stop
         style="stop-color:#f5861d;stop-opacity:1;"
         offset="0.76430207"
         id="stop38" /><stop
         style="stop-color:#f5d71d;stop-opacity:1;"
         offset="0.97025174"
         id="stop39" /></linearGradient><linearGradient
       id="linearGradient29"
       inkscape:collect="always"><stop
         style="stop-color:#8a161c;stop-opacity:1;"
         offset="0"
         id="stop29" /><stop
         style="stop-color:#f8a40e;stop-opacity:1;"
         offset="1"
         id="stop30" /></linearGradient><linearGradient
       inkscape:collect="always"
       xlink:href="#linearGradient39"
       id="linearGradient28"
       gradientUnits="userSpaceOnUse"
       gradientTransform="translate(-552.67682,49.56747)"
       x1="215.67442"
       y1="773.89062"
       x2="815.1225"
       y2="232.89214" /><linearGradient
       inkscape:collect="always"
       xlink:href="#linearGradient29"
       id="linearGradient30"
       x1="-391.39044"
       y1="552.26617"
       x2="392.65051"
       y2="552.26617"
       gradientUnits="userSpaceOnUse" /></defs><g
     inkscape:label="Layer 1"
     inkscape:groupmode="layer"
     id="layer1"><rect
       style="display:none;opacity:0.982234;fill:#e3e8cd;fill-opacity:1;stroke:none;stroke-width:51.7509;stroke-linecap:round;stroke-linejoin:miter;stroke-miterlimit:6.4;stroke-dasharray:none;stroke-opacity:1;paint-order:markers stroke fill"
       id="rect43"
       width="1000"
       height="1000"
       x="0"
       y="0"
       ry="2.8998742"
       sodipodi:insensitive="true" /><circle
       style="opacity:0.982234;fill:#e3e7cd;fill-opacity:1;stroke:none;stroke-width:5.16927;stroke-linecap:round;stroke-linejoin:miter;stroke-miterlimit:6.4;stroke-dasharray:none;stroke-opacity:1;paint-order:markers stroke fill"
       id="path44"
       cx="49.94381"
       cy="49.94381"
       r="49.94381" /><g
       id="g43"
       transform="matrix(0.08345254,0,0,0.08345254,54.416941,3.8558311)"><path
         id="path40"
         style="color:#000000;opacity:0.982234;fill:url(#linearGradient30);stroke-linecap:round;stroke-miterlimit:6.4;-inkscape-stroke:none;paint-order:markers stroke fill"
         d="M 392.65045,211.39071 57.031144,317.13465 -73.878695,428.34595 -17.189648,248.92589 -364.47078,430.88481 l 76.84182,18.15031 49.39854,11.67009 -153.16016,432.43562 212.84179,-131.932 35.00975,-108.62489 20.1073,-10.75955 L -7.8925415,778.8615 226.09008,679.41796 59.30284,618.96687 -0.46302083,548.02908 Z" /><path
         style="color:#000000;opacity:0.982234;fill:#000000;stroke-linecap:round;stroke-miterlimit:6.4;-inkscape-stroke:none;paint-order:markers stroke fill"
         d="M 343.17187,237.6543 61.042969,326.54492 -97.296875,461.05859 -37.132812,270.63867 -334.68164,426.53906 l 48.16602,11.37891 61.33398,14.48828 -146.79883,414.4707 182.78516,-113.30273 35.13476,-109.00586 31.87891,-17.05859 L -6.1347656,765.14648 194.63672,679.81836 51.371094,627.89258 -17.320312,546.35937 Z M 181.7168,327.26758 -69.197266,542.13477 29.484375,659.26367 93.738281,682.55078 4.5253906,720.4668 -113.22461,580.80859 l -71.42773,38.21875 -35.54883,110.29297 -81.82422,50.71875 125.42578,-354.125 -53.25976,-12.58203 130.492183,-68.36914 -71.835933,227.36719 250.476557,-212.78711 z"
         id="path41" /><path
         style="color:#000000;opacity:0.982234;fill:url(#linearGradient28);stroke-linecap:round;stroke-miterlimit:6.4;-inkscape-stroke:none;paint-order:markers stroke fill"
         d="M -282.26906,419.93641 -68.249633,307.80049 -134.24963,516.69372 70.158137,343.0432 262.44566,282.45962 -43.259343,544.24712 40.427867,643.57831 144.1872,681.18541 -0.80401332,742.80671 -117.70317,604.15892 l -51.65313,27.63889 -35.34161,109.6496 -132.30448,82.0107 136.11197,-384.2984 z"
         id="path42" /></g></g></svg>
